<svg version="1.1" id="Layer_1" xmlns="http://www.w3.org/2000/svg" xmlns:xlink="http://www.w3.org/1999/xlink" x="0px" y="0px" viewBox="0 0 48 48" style="enable-background:new 0 0 48 48;" xml:space="preserve">
<style type="text/css">
	.st0{fill:#F99F10;}
	.st1{fill:#F9C900;}
	.st2{fill:#CCCCCC;}
	.st3{fill:#EFEFEF;}
	.st4{fill:#5A99CC;}
	.st5{fill:#7E44B2;}
	.st6{fill:#905CC6;}
	.st7{fill:#FC5696;}
	.st8{fill:#4588B5;}
	.st9{fill:#A5A5A5;}
	.st10{fill:#D6D6D6;}
	.st11{fill:#828282;}
	.st12{fill:#B5B5B5;}
	.st13{fill:#9DE8FC;}
	.st14{fill:#D4F2F9;}
	.st15{fill:#BC9C73;}
	.st16{fill:#CCB9AE;}
	.st17{fill:#74CC5E;}
	.st18{fill:#A8EA92;}
	.st19{fill:#8BCBEF;}
	.st20{fill:#4C9933;}
	.st21{fill:#73B557;}
	.st22{fill:#FFFFFF;}
	.st23{fill:#FC92C3;}
	.st24{fill:#6DB3D1;}
	.st25{fill:#F2D6AD;}
	.st26{fill:#FCF6F2;}
	.st27{fill:#5E5E5E;}
	.st28{fill:#919191;}
</style>
<path class="st5" d="M10.997,40H7.003C6.449,40,6,39.551,6,38.997V25.003C6,24.449,6.449,24,7.003,24h3.995
	C11.551,24,12,24.449,12,25.003v13.995C12,39.551,11.551,40,10.997,40z" id="id_101" style="fill: rgb(0, 0, 0);"></path>
<path class="st6" d="M12,29v-3.997C12,24.449,11.551,24,10.997,24H7.003C6.449,24,6,24.449,6,25.003V35L12,29z" id="id_102" style="fill: rgb(169, 113, 209);"></path>
<path class="st7" d="M40.997,40h-3.995C36.449,40,36,39.551,36,38.997V9.003C36,8.449,36.449,8,37.003,8h3.995
	C41.551,8,42,8.449,42,9.003v29.995C42,39.551,41.551,40,40.997,40z" id="id_103" style="fill: rgb(169, 113, 209);"></path>
<path class="st23" d="M42,21V9.003C42,8.449,41.551,8,40.997,8h-3.995C36.449,8,36,8.449,36,9.003V27L42,21z" id="id_104" style="fill: rgb(0, 0, 0);"></path>
<path class="st0" d="M30.997,40h-3.995C26.449,40,26,39.551,26,38.997V20.003C26,19.449,26.449,19,27.003,19h3.995
	C31.551,19,32,19.449,32,20.003v18.995C32,39.551,31.551,40,30.997,40z" id="id_105" style="fill: rgb(169, 113, 209);"></path>
<path class="st1" d="M32,26v-5.997C32,19.449,31.551,19,30.997,19h-3.995C26.449,19,26,19.449,26,20.003V32L32,26z" id="id_106" style="fill: rgb(0, 0, 0);"></path>
<path class="st17" d="M20.997,40h-3.995C16.449,40,16,39.551,16,38.997V14.003C16,13.449,16.449,13,17.003,13h3.995
	C21.551,13,22,13.449,22,14.003v24.995C22,39.551,21.551,40,20.997,40z" id="id_107" style="fill: rgb(0, 0, 0);"></path>
<path class="st18" d="M22,23.001v-8.998C22,13.449,21.551,13,20.997,13h-3.995C16.449,13,16,13.449,16,14.003v14.998L22,23.001z" id="id_108" style="fill: rgb(169, 113, 209);"></path>
</svg>