<svg width="150" height="31" viewBox="0 0 150 31" fill="none" xmlns="http://www.w3.org/2000/svg">
<path d="M21.5688 25.4149L1.53534 11.5958C-0.49481 10.1955 0.195307 7.27978 2.72685 6.59413L24.0189 0.815233C24.9339 0.485039 25.9521 0.616661 26.7532 1.1687C27.5542 1.72074 28.0396 2.62536 28.0568 3.59804L26.795 23.1949C26.6453 25.521 23.599 26.8152 21.5688 25.4149Z" fill="url(#paint0_linear_5386_557)"/>
<path d="M15.215 28.8263L3.41261 5.74535C2.86254 4.66875 2.96199 3.37474 3.67012 2.39485C4.37825 1.41496 5.57567 0.914394 6.77051 1.09878L28.6432 4.47455C29.6648 4.63222 30.5485 5.27081 31.0189 6.19123C31.4892 7.11165 31.4891 8.20195 31.0184 9.12223L20.9425 28.8274C20.3909 29.9009 19.2852 30.5756 18.0784 30.5754C16.8715 30.5751 15.7661 29.8999 15.215 28.8263Z" fill="url(#paint1_linear_5386_557)"/>
<path d="M28.0032 4.37524L17.0998 2.69238L3.71289 6.32722L9.05627 16.7806L21.5688 25.4149C21.8449 25.6032 22.1485 25.7475 22.4689 25.8426L27.2215 16.5483L28.0032 4.37524Z" fill="#001A49"/>
<path fill-rule="evenodd" clip-rule="evenodd" d="M85.2808 5.02417C84.1491 5.02417 83.2317 5.9416 83.2317 7.0733C83.2432 8.20022 84.1539 9.11095 85.2808 9.12244C86.4125 9.12244 87.33 8.20501 87.33 7.0733C87.33 5.9416 86.4125 5.02417 85.2808 5.02417ZM86.9894 10.1241H83.5734V21.5077H86.9894V10.1241Z" fill="#001A49"/>
<path fill-rule="evenodd" clip-rule="evenodd" d="M100.271 19.9527C101.292 18.8244 101.821 17.3355 101.741 15.8158C101.821 14.2961 101.292 12.8073 100.271 11.6792C99.2493 10.551 97.8204 9.87673 96.3003 9.8057C95.0184 9.73563 93.7729 10.2452 92.9078 11.1938V10.124H89.4929V26.0614H92.9078V20.4377C93.7727 21.3867 95.0182 21.8967 96.3003 21.8269C97.8205 21.7556 99.2494 21.0811 100.271 19.9527ZM95.5711 13.174C97.0589 13.1491 98.2886 14.3282 98.326 15.8158C98.378 16.5552 98.1118 17.2816 97.5943 17.8123C97.0768 18.343 96.3574 18.6274 95.6169 18.5941C94.1289 18.5942 92.9191 17.3947 92.9065 15.9068C92.8939 14.4188 94.0833 13.199 95.5711 13.174Z" fill="#001A49"/>
<path d="M112.281 18.0904C112.281 20.7091 110.004 21.8246 107.545 21.8246C105.513 22.0086 103.574 20.9347 102.651 19.1144L105.61 17.4304C105.858 18.2779 106.665 18.8366 107.545 18.7705C108.365 18.7705 108.774 18.5192 108.774 18.0647C108.774 16.8118 103.173 17.4729 103.173 13.5332C103.173 11.0519 105.267 9.80007 107.64 9.80007C109.453 9.74317 111.153 10.6761 112.079 12.2356L109.166 13.8068C108.905 13.1959 108.304 12.8001 107.64 12.8017C107.048 12.8017 106.684 13.0251 106.684 13.4394C106.681 14.7459 112.281 13.8805 112.281 18.0904Z" fill="#001A49"/>
<path d="M124.763 10.124V21.5076H121.348V20.4356C120.548 21.3935 119.337 21.91 118.092 21.8247C115.792 21.8247 113.835 20.1854 113.835 17.1112V10.124H117.25V16.6131C117.191 17.1623 117.378 17.7092 117.76 18.1083C118.141 18.5074 118.679 18.7182 119.231 18.6846C120.482 18.6846 121.352 17.9565 121.352 16.3395V10.124H124.763Z" fill="#001A49"/>
<path d="M144.336 14.517V21.5075H140.921V14.814C140.921 13.6761 140.374 12.9469 139.282 12.9469C138.143 12.9469 137.506 13.7442 137.506 15.0876V21.5075H134.09V14.814C134.09 13.6761 133.544 12.9469 132.451 12.9469C131.313 12.9469 130.676 13.7442 130.676 15.0876V21.5075H127.261V10.1239H130.681V11.1669C131.4 10.2232 132.549 9.70894 133.732 9.80118C134.921 9.74304 136.053 10.3132 136.715 11.3031C137.484 10.2681 138.731 9.70091 140.017 9.80118C142.63 9.80564 144.336 11.6716 144.336 14.517Z" fill="#001A49"/>
<path d="M147.229 10.0537C148.629 10.0537 149.764 8.91877 149.764 7.51878C149.764 6.1188 148.629 4.98389 147.229 4.98389C145.829 4.98389 144.694 6.1188 144.694 7.51878C144.694 8.91877 145.829 10.0537 147.229 10.0537Z" fill="#001A49"/>
<path fill-rule="evenodd" clip-rule="evenodd" d="M36.6074 4.88794H40.0234V21.5077H36.6074V4.88794ZM41.9575 15.8159C41.9498 13.3752 43.4141 11.1706 45.6668 10.2313C47.9195 9.29193 50.5163 9.80314 52.2449 11.5263C53.9734 13.2494 54.4928 15.8445 53.5606 18.1002C52.6284 20.3558 50.4283 21.8271 47.9877 21.8271C46.3865 21.8442 44.8456 21.217 43.7115 20.0865C42.5775 18.956 41.9454 17.4171 41.9575 15.8159ZM47.9468 13.2658C49.3838 13.241 50.5723 14.3791 50.6097 15.8159H50.6141C50.6515 16.5282 50.3894 17.2236 49.8911 17.7339C49.3929 18.2443 48.7039 18.523 47.991 18.5027C46.5537 18.5022 45.3855 17.3434 45.3733 15.9061C45.3612 14.4689 46.5097 13.2905 47.9468 13.2658ZM67.6381 10.1208V20.936C67.6381 24.7606 64.6554 26.3765 61.6281 26.3765C59.4556 26.5405 57.3735 25.4774 56.2322 23.6216L59.1457 21.9365C59.6272 22.9094 60.662 23.4813 61.742 23.3715C62.4238 23.4646 63.111 23.2432 63.6103 22.7698C64.1097 22.2963 64.3672 21.6217 64.3104 20.936V19.8885C63.4992 20.8805 62.2659 21.4294 60.986 21.3681C57.8622 21.271 55.3801 18.7106 55.3801 15.5853C55.3801 12.46 57.8622 9.89959 60.986 9.80251C62.2659 9.74126 63.4992 10.2902 64.3104 11.2821V10.1208H67.6381ZM62.6924 12.9574C63.7187 13.42 64.3609 14.4599 64.3148 15.5848V15.5881C64.3349 16.3152 64.0469 17.0168 63.5217 17.5201C62.9966 18.0233 62.2833 18.2812 61.5577 18.2302C60.432 18.2297 59.4195 17.5451 58.9996 16.5006C58.5798 15.456 58.837 14.2611 59.6493 13.4817C60.4616 12.7023 61.6661 12.4948 62.6924 12.9574ZM69.5722 15.8081C69.5646 13.3674 71.0289 11.1628 73.2816 10.2234C75.5343 9.28411 78.1311 9.79533 79.8596 11.5184C81.5881 13.2415 82.1076 15.8367 81.1753 18.0923C80.2431 20.348 78.0431 21.8193 75.6024 21.8193C74.0026 21.8364 72.4629 21.2102 71.3291 20.0814C70.1953 18.9527 69.5623 17.4158 69.5722 15.8159V15.8081ZM75.5607 13.2557C76.9987 13.2311 78.1876 14.3704 78.2244 15.8081V15.8159C78.2595 16.526 77.9969 17.2186 77.4999 17.7271C77.0029 18.2355 76.3165 18.5138 75.6057 18.4949C74.1676 18.495 72.9982 17.3357 72.9858 15.8976C72.9735 14.4595 74.1228 13.2803 75.5607 13.2557Z" fill="#001A49"/>
<defs>
<linearGradient id="paint0_linear_5386_557" x1="14.6889" y1="31.4571" x2="27.2033" y2="12.4358" gradientUnits="userSpaceOnUse">
<stop stop-color="#FFD7A9"/>
<stop offset="1" stop-color="#FFAE70"/>
</linearGradient>
<linearGradient id="paint1_linear_5386_557" x1="19.0239" y1="37.5526" x2="39.0399" y2="17.7448" gradientUnits="userSpaceOnUse">
<stop stop-color="#CD10FF"/>
<stop offset="1" stop-color="#9F06FF"/>
</linearGradient>
</defs>
</svg>
