<svg width="199" height="41" viewBox="0 0 199 41" fill="none" xmlns="http://www.w3.org/2000/svg">
<path d="M28.6148 33.717L2.03701 15.3837C-0.656322 13.5259 0.259234 9.65777 3.61775 8.74814L31.8652 1.08147C33.0792 0.643414 34.4299 0.818032 35.4926 1.5504C36.5553 2.28277 37.1994 3.4829 37.2222 4.77332L35.5481 30.7718C35.3496 33.8578 31.3081 35.5748 28.6148 33.717Z" fill="url(#paint0_linear_5386_378)"/>
<path d="M20.1851 38.243L4.52728 7.62223C3.79752 6.19395 3.92947 4.47722 4.86892 3.17724C5.80837 1.87725 7.39695 1.21317 8.9821 1.45779L37.9999 5.93631C39.3551 6.14549 40.5275 6.99269 41.1516 8.21378C41.7756 9.43487 41.7754 10.8813 41.151 12.1022L27.7836 38.2445C27.0518 39.6685 25.585 40.5637 23.9839 40.5634C22.3828 40.5631 20.9163 39.6673 20.1851 38.243Z" fill="url(#paint1_linear_5386_378)"/>
<path d="M37.151 5.80437L22.6858 3.57178L4.92578 8.394L12.0147 22.2621L28.6147 33.717C28.9809 33.9668 29.3837 34.1582 29.8087 34.2844L36.1139 21.954L37.151 5.80437Z" fill="#001A49"/>
<path fill-rule="evenodd" clip-rule="evenodd" d="M113.139 6.66528C111.638 6.66528 110.421 7.88241 110.421 9.3838C110.436 10.8788 111.644 12.0871 113.139 12.1023C114.641 12.1023 115.858 10.8852 115.858 9.3838C115.858 7.88241 114.641 6.66528 113.139 6.66528ZM115.406 13.4312H110.874V28.5334H115.406V13.4312Z" fill="#001A49"/>
<path fill-rule="evenodd" clip-rule="evenodd" d="M133.026 26.4707C134.381 24.9738 135.083 22.9985 134.976 20.9823C135.083 18.9663 134.38 16.9911 133.026 15.4944C131.671 13.9978 129.775 13.1032 127.758 13.009C126.058 12.916 124.405 13.5921 123.258 14.8504V13.4312H118.727V34.5749H123.258V27.1141C124.405 28.3731 126.058 29.0497 127.758 28.9571C129.775 28.8625 131.671 27.9676 133.026 26.4707ZM126.791 17.4776C128.765 17.4445 130.396 19.0089 130.446 20.9823C130.515 21.9632 130.162 22.927 129.475 23.631C128.789 24.3351 127.834 24.7125 126.852 24.6682C124.878 24.6684 123.273 23.077 123.256 21.103C123.239 19.129 124.817 17.5108 126.791 17.4776Z" fill="#001A49"/>
<path d="M148.96 24.0001C148.96 27.4741 145.939 28.9541 142.677 28.9541C139.98 29.1982 137.408 27.7735 136.184 25.3586L140.11 23.1245C140.438 24.2488 141.509 24.99 142.677 24.9023C143.764 24.9023 144.307 24.569 144.307 23.966C144.307 22.3038 136.877 23.1808 136.877 17.9541C136.877 14.6623 139.655 13.0016 142.803 13.0016C145.208 12.9261 147.463 14.1638 148.692 16.2327L144.827 18.3171C144.481 17.5066 143.684 16.9816 142.803 16.9838C142.018 16.9838 141.535 17.2801 141.535 17.8297C141.53 19.563 148.96 18.4149 148.96 24.0001Z" fill="#001A49"/>
<path d="M165.519 13.4312V28.5334H160.988V27.1112C159.927 28.382 158.32 29.0673 156.668 28.9541C153.618 28.9541 151.021 26.7793 151.021 22.7008V13.4312H155.551V22.04C155.474 22.7686 155.721 23.4942 156.228 24.0237C156.734 24.5531 157.448 24.8328 158.179 24.7882C159.84 24.7882 160.994 23.8223 160.994 21.6771V13.4312H165.519Z" fill="#001A49"/>
<path d="M191.486 19.2592V28.5333H186.955V19.6533C186.955 18.1436 186.23 17.1762 184.781 17.1762C183.27 17.1762 182.425 18.234 182.425 20.0162V28.5333H177.893V19.6533C177.893 18.1436 177.169 17.1762 175.718 17.1762C174.209 17.1762 173.363 18.234 173.363 20.0162V28.5333H168.833V13.431H173.37V14.8147C174.324 13.5628 175.848 12.8805 177.418 13.0029C178.995 12.9258 180.497 13.6822 181.375 14.9955C182.395 13.6224 184.05 12.8699 185.755 13.0029C189.222 13.0088 191.486 15.4844 191.486 19.2592Z" fill="#001A49"/>
<path d="M195.324 13.3377C197.182 13.3377 198.687 11.8321 198.687 9.97478C198.687 8.11747 197.182 6.61182 195.324 6.61182C193.467 6.61182 191.961 8.11747 191.961 9.97478C191.961 11.8321 193.467 13.3377 195.324 13.3377Z" fill="#001A49"/>
<path fill-rule="evenodd" clip-rule="evenodd" d="M48.5659 6.48438H53.0978V28.5333H48.5659V6.48438ZM55.6637 20.9822C55.6535 17.7442 57.5962 14.8194 60.5847 13.5732C63.5733 12.327 67.0184 13.0052 69.3116 15.2912C71.6048 17.5772 72.2939 21.0201 71.0571 24.0126C69.8204 27.0051 66.9017 28.957 63.6637 28.957C61.5395 28.9797 59.4952 28.1476 57.9907 26.6478C56.4862 25.148 55.6477 23.1065 55.6637 20.9822ZM63.6095 17.599C65.5159 17.5661 67.0926 19.076 67.1422 20.9822H67.1481C67.1978 21.9271 66.85 22.8497 66.189 23.5267C65.528 24.2038 64.614 24.5736 63.6681 24.5466C61.7614 24.546 60.2115 23.0086 60.1954 21.1019C60.1793 19.1952 61.703 17.6318 63.6095 17.599ZM89.7333 13.4266V27.7747C89.7333 32.8488 85.7763 34.9925 81.76 34.9925C78.8778 35.2101 76.1155 33.7998 74.6015 31.3377L78.4667 29.1022C79.1055 30.3929 80.4783 31.1516 81.9111 31.0059C82.8156 31.1294 83.7274 30.8358 84.3898 30.2076C85.0522 29.5794 85.3938 28.6846 85.3185 27.7747V26.3851C84.2423 27.7011 82.6062 28.4293 80.9081 28.3481C76.7639 28.2193 73.471 24.8225 73.471 20.6762C73.471 16.53 76.7639 13.1332 80.9081 13.0044C82.6062 12.9231 84.2423 13.6513 85.3185 14.9673V13.4266H89.7333ZM83.172 17.1898C84.5336 17.8036 85.3855 19.1832 85.3244 20.6755V20.6799C85.3511 21.6445 84.9689 22.5754 84.2722 23.243C83.5755 23.9106 82.6292 24.2528 81.6667 24.1851C80.1731 24.1845 78.8299 23.2762 78.2729 21.8905C77.716 20.5047 78.0571 18.9195 79.1348 17.8855C80.2125 16.8514 81.8104 16.5761 83.172 17.1898ZM92.2993 20.9718C92.2891 17.7338 94.2317 14.809 97.2203 13.5628C100.209 12.3166 103.654 12.9948 105.947 15.2808C108.24 17.5668 108.929 21.0097 107.693 24.0022C106.456 26.9947 103.537 28.9466 100.299 28.9466C98.1768 28.9693 96.1342 28.1386 94.63 26.6411C93.1258 25.1436 92.286 23.1047 92.2993 20.9822V20.9718ZM100.244 17.5856C102.152 17.553 103.729 19.0644 103.778 20.9718V20.9822C103.824 21.9243 103.476 22.8431 102.817 23.5176C102.157 24.1922 101.247 24.5613 100.304 24.5362C98.3957 24.5364 96.8443 22.9984 96.8279 21.0905C96.8115 19.1826 98.3363 17.6182 100.244 17.5856Z" fill="#001A49"/>
<defs>
<linearGradient id="paint0_linear_5386_378" x1="19.4874" y1="41.733" x2="36.0899" y2="16.4981" gradientUnits="userSpaceOnUse">
<stop stop-color="#FFD7A9"/>
<stop offset="1" stop-color="#FFAE70"/>
</linearGradient>
<linearGradient id="paint1_linear_5386_378" x1="25.2382" y1="49.8199" x2="51.7928" y2="23.5415" gradientUnits="userSpaceOnUse">
<stop stop-color="#CD10FF"/>
<stop offset="1" stop-color="#9F06FF"/>
</linearGradient>
</defs>
</svg>
